<svg width="38" height="38" viewBox="0 0 38 38" fill="none" xmlns="http://www.w3.org/2000/svg">
<path d="M33.2471 4.75H4.74711C3.00544 4.75 1.58044 6.175 1.58044 7.91667V30.0833C1.58044 31.825 3.00544 33.25 4.74711 33.25H33.2471C34.9888 33.25 36.4138 31.825 36.4138 30.0833V7.91667C36.4138 6.175 34.9888 4.75 33.2471 4.75ZM33.2471 30.0833H4.74711V7.91667H33.2471V30.0833ZM14.8963 25.2542L18.9971 21.1533L23.0979 25.2542L25.3304 23.0217L21.2296 18.9208L25.3304 14.82L23.0979 12.5875L18.9971 16.6883L14.8963 12.5875L12.6638 14.82L16.7646 18.9208L12.6638 23.0217L14.8963 25.2542Z" fill="black"/>
</svg>
