<svg width="48" height="48" viewBox="0 0 48 48" fill="none" xmlns="http://www.w3.org/2000/svg">
<circle cx="24" cy="24" r="24" fill="#38569A"/>
<path d="M29.1421 13.7185L26.4745 13.7142C23.4774 13.7142 21.5406 15.7013 21.5406 18.7769V21.1111H18.8584C18.6267 21.1111 18.439 21.299 18.439 21.5308V24.9128C18.439 25.1446 18.6269 25.3323 18.8584 25.3323H21.5406V33.8662C21.5406 34.098 21.7283 34.2857 21.9601 34.2857H25.4596C25.6914 34.2857 25.8791 34.0978 25.8791 33.8662V25.3323H29.0152C29.247 25.3323 29.4347 25.1446 29.4347 24.9128L29.4359 21.5308C29.4359 21.4195 29.3916 21.3129 29.3131 21.2342C29.2346 21.1554 29.1276 21.1111 29.0163 21.1111H25.8791V19.1324C25.8791 18.1813 26.1057 17.6985 27.3446 17.6985L29.1417 17.6978C29.3732 17.6978 29.5609 17.5099 29.5609 17.2784V14.138C29.5609 13.9066 29.3735 13.7189 29.1421 13.7185Z" fill="white"/>
</svg>
