<svg width="48" height="48" viewBox="0 0 48 48" fill="none" xmlns="http://www.w3.org/2000/svg">
<circle cx="24" cy="24" r="23.5" fill="white" stroke="#E8E8E8"/>
<path d="M18.2733 26.1458L17.5572 28.819L14.94 28.8743C14.1579 27.4236 13.7142 25.7638 13.7142 24C13.7142 22.2943 14.129 20.6859 14.8643 19.2697H14.8649L17.1949 19.6968L18.2156 22.0129C18.002 22.6357 17.8855 23.3043 17.8855 24C17.8856 24.755 18.0224 25.4784 18.2733 26.1458Z" fill="#FBBB00"/>
<path d="M34.1059 22.0785C34.2241 22.7007 34.2857 23.3433 34.2857 24C34.2857 24.7364 34.2082 25.4547 34.0607 26.1476C33.56 28.5054 32.2517 30.5642 30.4393 32.0212L30.4387 32.0206L27.5039 31.8709L27.0886 29.2779C28.2912 28.5726 29.231 27.4689 29.7261 26.1476H24.2261V22.0785H29.8064H34.1059Z" fill="#518EF8"/>
<path d="M30.4386 32.0206L30.4391 32.0211C28.6765 33.438 26.4373 34.2857 23.9998 34.2857C20.0828 34.2857 16.6772 32.0963 14.9399 28.8744L18.2732 26.1459C19.1418 28.4641 21.3781 30.1144 23.9998 30.1144C25.1267 30.1144 26.1825 29.8097 27.0884 29.2779L30.4386 32.0206Z" fill="#28B446"/>
<path d="M30.5654 16.0822L27.2332 18.8102C26.2957 18.2241 25.1874 17.8856 24 17.8856C21.3189 17.8856 19.0408 19.6115 18.2157 22.0129L14.8649 19.2696H14.8644C16.5762 15.9692 20.0248 13.7142 24 13.7142C26.4957 13.7142 28.784 14.6032 30.5654 16.0822Z" fill="#F14336"/>
</svg>
