<svg width="74" height="84" viewBox="0 0 74 84" fill="none" xmlns="http://www.w3.org/2000/svg">
<path d="M74 60.9C74 62.496 73.1367 63.882 71.8211 64.596L39.3433 83.244C38.6856 83.748 37.8633 84 37 84C36.1367 84 35.3145 83.748 34.6567 83.244L2.1789 64.596C1.51981 64.2421 0.968232 63.7106 0.584094 63.0589C0.199956 62.4073 -0.00205214 61.6607 1.57178e-05 60.9V23.1C1.57178e-05 21.504 0.863349 20.118 2.1789 19.404L34.6567 0.756C35.3145 0.252 36.1367 0 37 0C37.8633 0 38.6856 0.252 39.3433 0.756L71.8211 19.404C73.1367 20.118 74 21.504 74 23.1V60.9ZM8.22224 29.4V54.6H13.3611V46.2H16.4445C18.6251 46.2 20.7165 45.315 22.2584 43.7397C23.8004 42.1644 24.6667 40.0278 24.6667 37.8C24.6667 35.5722 23.8004 33.4356 22.2584 31.8603C20.7165 30.285 18.6251 29.4 16.4445 29.4H8.22224ZM13.3611 42V33.6H15.4167C16.507 33.6 17.5527 34.0425 18.3237 34.8302C19.0947 35.6178 19.5278 36.6861 19.5278 37.8C19.5278 38.9139 19.0947 39.9822 18.3237 40.7698C17.5527 41.5575 16.507 42 15.4167 42H13.3611ZM27.75 29.4V54.6H32.8889V46.2H35.9722L38.6856 54.6H44.1122L40.8644 44.562C42.8789 43.05 44.1945 40.572 44.1945 37.8C44.1945 35.5722 43.3282 33.4356 41.7862 31.8603C40.2443 30.285 38.1529 29.4 35.9722 29.4H27.75ZM32.8889 42V33.6H34.9445C36.0348 33.6 37.0805 34.0425 37.8514 34.8302C38.6224 35.6178 39.0556 36.6861 39.0556 37.8C39.0556 38.9139 38.6224 39.9822 37.8514 40.7698C37.0805 41.5575 36.0348 42 34.9445 42H32.8889ZM57.5556 29.4C51.8822 29.4 47.2778 35.028 47.2778 42C47.2778 48.972 51.8822 54.6 57.5556 54.6C63.2289 54.6 67.8333 48.972 67.8333 42C67.8333 35.028 63.2289 29.4 57.5556 29.4ZM57.5556 34.65C60.68 34.65 63.2289 37.926 63.2289 42C63.2289 46.074 60.68 49.35 57.5556 49.35C54.4311 49.35 51.9233 46.074 51.9233 42C51.9233 37.926 54.4311 34.65 57.5556 34.65Z" fill="#ED9932"/>
</svg>
