<svg width="66" height="66" viewBox="0 0 66 66" fill="none" xmlns="http://www.w3.org/2000/svg">
<path d="M32.6973 0C14.6484 0 0 14.6484 0 32.6973C0 50.7462 14.6484 65.3945 32.6973 65.3945C50.7462 65.3945 65.3945 50.7462 65.3945 32.6973C65.3945 14.6484 50.7462 0 32.6973 0ZM47.8688 22.2341C47.3783 27.4003 45.253 39.9561 44.174 45.7435C43.7162 48.1958 42.8007 49.0132 41.9506 49.1113C40.0541 49.2748 38.6155 47.8688 36.7844 46.659C33.9071 44.7626 32.2722 43.5855 29.4929 41.7544C26.2559 39.6291 28.3485 38.452 30.2123 36.5555C30.7027 36.0651 39.0732 28.4466 39.2367 27.76C39.2594 27.656 39.2564 27.548 39.2279 27.4454C39.1994 27.3429 39.1463 27.2488 39.0732 27.1714C38.877 27.0079 38.6155 27.0733 38.3866 27.106C38.0923 27.1714 33.5147 30.2123 24.5883 36.2286C23.2805 37.1114 22.1033 37.5692 21.057 37.5365C19.8799 37.5038 17.6565 36.8825 15.989 36.3267C13.929 35.6727 12.3269 35.313 12.4577 34.1686C12.5231 33.5801 13.3405 32.9915 14.8773 32.3703C24.4249 28.2177 30.7681 25.4712 33.9398 24.1633C43.0296 20.3704 44.8933 19.7164 46.1358 19.7164C46.3974 19.7164 47.0187 19.7818 47.411 20.1088C47.738 20.3704 47.8361 20.7301 47.8688 20.9916C47.8361 21.1878 47.9015 21.7764 47.8688 22.2341Z" fill="#1D1D1D"/>
</svg>
