<svg width="59" height="64" viewBox="0 0 59 64" fill="none" xmlns="http://www.w3.org/2000/svg">
<path fill-rule="evenodd" clip-rule="evenodd" d="M44.4932 1.64892C34.6186 -0.54964 24.3785 -0.54964 14.5039 1.64892L13.4399 1.88338C10.6623 2.50193 8.1112 3.87532 6.07004 5.85099C4.02888 7.82666 2.57755 10.3273 1.87728 13.075C-0.625761 22.899 -0.625761 33.1902 1.87728 43.0142C2.5451 45.6347 3.89667 48.0328 5.79499 49.9653C7.6933 51.8978 10.0709 53.2961 12.6866 54.0183L14.1461 62.6965C14.1927 62.9721 14.3126 63.2301 14.4933 63.4439C14.674 63.6576 14.909 63.8192 15.1737 63.9117C15.4384 64.0043 15.7232 64.0245 15.9985 63.9702C16.2737 63.9159 16.5292 63.7891 16.7386 63.6031L25.3101 55.9659C31.7445 56.357 38.2021 55.8445 44.4932 54.4434L45.5603 54.209C48.3379 53.5904 50.889 52.217 52.9302 50.2414C54.9713 48.2657 56.4226 45.7651 57.1229 43.0173C59.6257 33.1933 59.6257 22.9022 57.1229 13.0781C56.4224 10.33 54.9706 7.82912 52.9289 5.85341C50.8871 3.8777 48.3354 2.50454 45.5572 1.88651L44.4932 1.64892ZM17.1528 12.8218C16.5695 12.7372 15.9747 12.8542 15.4674 13.1532H15.4235C14.2465 13.8409 13.1857 14.7069 12.2817 15.726C11.5285 16.5919 11.1205 17.4673 11.0137 18.3113C10.951 18.8115 10.9949 19.3179 11.1424 19.7963L11.1989 19.8275C12.0463 22.3066 13.1511 24.6918 14.5007 26.9364C16.2409 30.0891 18.3824 33.0049 20.8721 35.6115L20.9474 35.7178L21.0667 35.8053L21.1389 35.8897L21.2267 35.9647C23.8529 38.452 26.7872 40.5951 29.9583 42.3421C33.5834 44.3084 35.7836 45.2369 37.1049 45.6245V45.6433C37.491 45.7621 37.8425 45.8152 38.1972 45.8152C39.3225 45.7324 40.3876 45.2768 41.2228 44.521C42.2428 43.6207 43.1059 42.5609 43.7776 41.3824V41.3605C44.4084 40.1725 44.195 39.0534 43.2848 38.2937C41.4566 36.7026 39.4797 35.2894 37.3811 34.0734C35.975 33.3137 34.547 33.7733 33.9695 34.5423L32.736 36.0929C32.102 36.8619 30.9533 36.7556 30.9533 36.7556L30.9219 36.7744C22.3504 34.5955 20.0623 25.9517 20.0623 25.9517C20.0623 25.9517 19.9556 24.7762 20.7497 24.176L22.2939 22.938C23.0346 22.3378 23.5493 20.9185 22.7552 19.518C21.5425 17.4259 20.1265 15.4574 18.5276 13.6409C18.1788 13.2133 17.6898 12.9222 17.1466 12.8187L17.1528 12.8218ZM31.6343 9.06416C31.2181 9.06416 30.819 9.22884 30.5247 9.52198C30.2304 9.81511 30.065 10.2127 30.065 10.6272C30.065 11.0418 30.2304 11.4394 30.5247 11.7325C30.819 12.0256 31.2181 12.1903 31.6343 12.1903C35.6047 12.1903 38.9002 13.4814 41.5084 15.9573C42.8486 17.311 43.8937 18.9147 44.5779 20.6716C45.2653 22.4316 45.5791 24.3104 45.4975 26.1924C45.4889 26.3976 45.5209 26.6026 45.5918 26.7955C45.6626 26.9885 45.771 27.1656 45.9106 27.3169C46.1925 27.6223 46.5847 27.8037 47.0009 27.8211C47.4171 27.8385 47.8232 27.6905 48.1299 27.4097C48.4366 27.1289 48.6187 26.7382 48.6361 26.3237C48.7335 24.0087 48.3477 21.6988 47.5031 19.5399C46.6549 17.3708 45.3687 15.3981 43.7242 13.744L43.6928 13.7128C40.4569 10.6335 36.3611 9.06416 31.6343 9.06416ZM31.5276 14.2036C31.1114 14.2036 30.7123 14.3682 30.418 14.6614C30.1237 14.9545 29.9583 15.3521 29.9583 15.7666C29.9583 16.1812 30.1237 16.5788 30.418 16.8719C30.7123 17.165 31.1114 17.3297 31.5276 17.3297H31.581C34.4434 17.5329 36.5274 18.4833 37.9869 20.0432C39.484 21.6501 40.2592 23.6477 40.1996 26.1173C40.19 26.5319 40.3462 26.9333 40.6337 27.2331C40.9212 27.533 41.3166 27.7068 41.7328 27.7164C42.149 27.7259 42.552 27.5704 42.853 27.284C43.1541 26.9976 43.3286 26.6038 43.3382 26.1892C43.4135 22.9474 42.3652 20.1495 40.2875 17.9174V17.9112C38.1626 15.6416 35.2469 14.4411 31.7379 14.2067L31.6846 14.2004L31.5276 14.2036ZM31.468 19.4399C31.258 19.4214 31.0464 19.4453 30.8458 19.5101C30.6453 19.5749 30.4599 19.6793 30.3008 19.817C30.1416 19.9547 30.012 20.123 29.9196 20.3117C29.8271 20.5005 29.7739 20.7059 29.7629 20.9156C29.7519 21.1253 29.7835 21.335 29.8557 21.5323C29.9279 21.7296 30.0393 21.9104 30.1832 22.0639C30.3272 22.2173 30.5006 22.3403 30.6933 22.4255C30.886 22.5107 31.094 22.5564 31.3048 22.5598C32.6167 22.6285 33.4547 23.0224 33.982 23.5508C34.5124 24.0822 34.9079 24.9356 34.9801 26.2705C34.984 26.4803 35.0303 26.6871 35.1162 26.8787C35.202 27.0703 35.3257 27.2427 35.4799 27.3856C35.6341 27.5285 35.8156 27.6391 36.0136 27.7107C36.2116 27.7823 36.422 27.8135 36.6323 27.8023C36.8427 27.7912 37.0486 27.738 37.2379 27.6459C37.4271 27.5539 37.5959 27.4248 37.734 27.2664C37.8721 27.108 37.9768 26.9235 38.0418 26.7239C38.1068 26.5244 38.1308 26.3138 38.1124 26.1048C38.012 24.2291 37.4219 22.5723 36.2136 21.3531C34.9989 20.1339 33.3449 19.5399 31.468 19.4399Z" fill="#1D1D1D"/>
</svg>
