<svg width="60" height="60" viewBox="0 0 60 60" fill="none" xmlns="http://www.w3.org/2000/svg">
<path d="M0.0119481 59.5413L4.03694 44.7512C1.38479 40.2048 -0.0086056 35.0341 3.99886e-05 29.7706C3.99886e-05 13.3283 13.3284 0 29.7707 0C46.213 0 59.5413 13.3283 59.5413 29.7706C59.5413 46.213 46.213 59.5413 29.7707 59.5413C24.5095 59.5498 19.341 58.1575 14.796 55.5074L0.0119481 59.5413ZM19.0265 15.8023C18.642 15.8261 18.2663 15.9274 17.922 16.1C17.599 16.2828 17.3042 16.5115 17.0467 16.7787C16.6895 17.1151 16.487 17.4069 16.2697 17.6897C15.1694 19.1217 14.5776 20.8794 14.5877 22.6852C14.5936 24.144 14.9747 25.564 15.5701 26.8918C16.7877 29.5771 18.7913 32.4202 21.4379 35.0549C22.075 35.689 22.6972 36.3261 23.367 36.9186C26.6519 39.8107 30.5663 41.8963 34.7989 43.0096L36.4929 43.2687C37.0437 43.2984 37.5944 43.2567 38.1481 43.2299C39.0152 43.1852 39.8618 42.9504 40.628 42.5422C41.0179 42.3414 41.3984 42.1229 41.7683 41.8873C41.7683 41.8873 41.8963 41.8039 42.1404 41.6194C42.5423 41.3216 42.7894 41.1103 43.1228 40.762C43.3699 40.5059 43.5843 40.2053 43.748 39.8629C43.9802 39.3776 44.2124 38.4518 44.3077 37.6807C44.3791 37.0912 44.3583 36.7697 44.3494 36.5703C44.3375 36.2517 44.0725 35.9213 43.7837 35.7813L42.0511 35.0043C42.0511 35.0043 39.461 33.876 37.8802 33.1556C37.7135 33.0829 37.5349 33.0415 37.3533 33.0335C37.1496 33.0126 36.9438 33.0355 36.7497 33.1007C36.5556 33.1659 36.3777 33.2719 36.2279 33.4116V33.4056C36.213 33.4056 36.0136 33.5753 33.8612 36.1832C33.7376 36.3492 33.5675 36.4747 33.3723 36.5436C33.1772 36.6126 32.966 36.6218 32.7656 36.5703C32.5716 36.5184 32.3816 36.4527 32.197 36.3738C31.8278 36.219 31.6998 36.1594 31.4468 36.0493L31.4319 36.0433C29.7287 35.2997 28.1518 34.2953 26.7579 33.0663C26.3828 32.7388 26.0345 32.3815 25.6772 32.0362C24.506 30.9145 23.4852 29.6456 22.6406 28.2613L22.465 27.9784C22.3388 27.7884 22.2368 27.5834 22.1613 27.3682C22.0482 26.9305 22.3429 26.5792 22.3429 26.5792C22.3429 26.5792 23.0663 25.7873 23.4027 25.3586C23.6829 25.0023 23.9442 24.6317 24.1857 24.2482C24.537 23.6825 24.6472 23.102 24.4626 22.6525C23.629 20.6162 22.7656 18.5888 21.8785 16.5763C21.7028 16.1774 21.1819 15.8916 20.7085 15.835C20.5477 15.8171 20.387 15.7993 20.2262 15.7874C19.8264 15.7675 19.4258 15.7745 19.0265 15.8023Z" fill="#1D1D1D"/>
</svg>
